<?xml version="1.0" encoding="utf-8"?>
<!-- Generator: Adobe Illustrator 16.0.0, SVG Export Plug-In . SVG Version: 6.00 Build 0)  -->
<!DOCTYPE svg PUBLIC "-//W3C//DTD SVG 1.1//EN" "http://www.w3.org/Graphics/SVG/1.1/DTD/svg11.dtd">
<svg version="1.1" id="svg2-Calque_1" xmlns="http://www.w3.org/2000/svg" xmlns:xlink="http://www.w3.org/1999/xlink" x="0px"
	 y="0px" width="229px" height="55px" viewBox="0 35 229 55" enable-background="new 0 35 229 55" xml:space="preserve">
<g>
	<path d="M4.536,40.854h8.227v6.643h0.183c0.548-1.151,1.28-2.198,2.194-3.139c0.914-0.94,1.934-1.743,3.062-2.412
		c1.126-0.667,2.36-1.197,3.702-1.592c1.339-0.394,2.681-0.592,4.021-0.592c1.34,0,2.56,0.182,3.656,0.546l-0.366,8.827
		c-0.671-0.182-1.341-0.333-2.011-0.455c-0.671-0.121-1.341-0.182-2.011-0.182c-4.022,0-7.1,1.124-9.232,3.367
		c-2.134,2.245-3.199,5.733-3.199,10.466v21.655H4.536V40.854z"/>
	<path d="M38.994,40.854h8.227v43.132h-8.227V40.854z"/>
	<path d="M58.188,62.421c0-3.153,0.594-6.098,1.782-8.828c1.188-2.73,2.818-5.126,4.89-7.189c2.071-2.062,4.509-3.686,7.312-4.869
		c2.802-1.183,5.818-1.774,9.049-1.774c3.229,0,6.246,0.592,9.049,1.774c2.802,1.183,5.24,2.807,7.312,4.869
		c2.071,2.063,3.702,4.459,4.89,7.189c1.188,2.73,1.782,5.673,1.782,8.828c0,3.155-0.594,6.112-1.782,8.873
		c-1.188,2.761-2.819,5.156-4.89,7.188c-2.072,2.033-4.51,3.641-7.312,4.822c-2.803,1.185-5.819,1.773-9.049,1.773
		s-6.247-0.592-9.049-1.773c-2.803-1.183-5.241-2.789-7.312-4.822c-2.072-2.031-3.702-4.428-4.89-7.188
		C58.782,68.534,58.188,65.575,58.188,62.421z M66.963,62.421c0,2.185,0.334,4.201,1.005,6.052c0.67,1.853,1.614,3.43,2.833,4.731
		c1.218,1.305,2.711,2.336,4.479,3.094c1.767,0.761,3.748,1.14,5.941,1.14c2.194,0,4.173-0.379,5.941-1.14
		c1.767-0.758,3.259-1.789,4.479-3.094c1.218-1.304,2.163-2.881,2.833-4.731s1.005-3.867,1.005-6.052s-0.335-4.201-1.005-6.052
		c-0.671-1.85-1.615-3.427-2.833-4.732c-1.219-1.304-2.712-2.334-4.479-3.094c-1.768-0.758-3.748-1.138-5.941-1.138
		c-2.193,0-4.174,0.38-5.941,1.138c-1.768,0.759-3.261,1.79-4.479,3.094c-1.22,1.305-2.164,2.882-2.833,4.732
		C67.297,58.22,66.963,60.236,66.963,62.421z"/>
	<path d="M114.584,40.854h8.225v6.643h0.184c1.035-2.305,2.834-4.17,5.395-5.596c2.56-1.425,5.515-2.139,8.867-2.139
		c2.068,0,4.064,0.318,5.984,0.956c1.92,0.638,3.596,1.624,5.027,2.958c1.43,1.335,2.572,3.048,3.428,5.142
		c0.854,2.093,1.279,4.565,1.279,7.417v27.751h-8.227V58.507c0-2.002-0.273-3.715-0.822-5.142c-0.549-1.425-1.279-2.578-2.193-3.458
		c-0.914-0.878-1.967-1.516-3.154-1.911c-1.188-0.394-2.422-0.591-3.699-0.591c-1.707,0-3.291,0.271-4.756,0.819
		c-1.463,0.546-2.74,1.411-3.838,2.594c-1.098,1.183-1.949,2.685-2.561,4.504c-0.609,1.819-0.914,3.974-0.914,6.461v22.203h-8.225
		V40.854L114.584,40.854z"/>
	<path d="M166.043,40.854h8.227v43.132h-8.227V40.854z"/>
	<path d="M218.325,52.319c-1.523-1.577-3.125-2.775-4.8-3.595c-1.678-0.819-3.672-1.229-5.987-1.229c-2.254,0-4.22,0.41-5.896,1.229
		c-1.678,0.819-3.078,1.942-4.205,3.367c-1.127,1.426-1.979,3.064-2.561,4.914c-0.578,1.851-0.867,3.776-0.867,5.778
		s0.334,3.898,1.006,5.688c0.67,1.789,1.613,3.354,2.834,4.688c1.219,1.335,2.68,2.382,4.387,3.14
		c1.705,0.761,3.625,1.14,5.759,1.14c2.315,0,4.297-0.41,5.94-1.229c1.646-0.819,3.168-2.019,4.57-3.597l5.85,5.824
		c-2.133,2.365-4.614,4.064-7.448,5.097c-2.832,1.03-5.834,1.547-9.003,1.547c-3.354,0-6.413-0.546-9.188-1.638
		c-2.773-1.092-5.164-2.623-7.176-4.598c-2.012-1.971-3.562-4.336-4.66-7.098c-1.098-2.76-1.646-5.809-1.646-9.146
		c0-3.336,0.55-6.4,1.646-9.191c1.098-2.79,2.635-5.187,4.615-7.189c1.979-2.002,4.354-3.562,7.129-4.687
		c2.771-1.122,5.865-1.683,9.275-1.683c3.168,0,6.199,0.562,9.098,1.683c2.895,1.124,5.404,2.837,7.539,5.142L218.325,52.319z"/>
</g>
</svg>
